<svg width="0" height="0"><symbol xmlns="http://www.w3.org/2000/svg" id="close" fill="none" aria-label="Close icon" viewBox="0 0 24 24"><path fill="currentColor" d="M5.636 5.636a1 1 0 0 1 1.414 0l4.95 4.95 4.95-4.95a1 1 0 0 1 1.414 1.414L13.414 12l4.95 4.95a1 1 0 0 1-1.414 1.414L12 13.414l-4.95 4.95a1 1 0 0 1-1.414-1.414l4.95-4.95-4.95-4.95a1 1 0 0 1 0-1.414Z"/></symbol><symbol xmlns="http://www.w3.org/2000/svg" id="logout" fill="none" viewBox="0 0 24 24"><path stroke="var(--icon-color)" stroke-linecap="round" stroke-linejoin="round" stroke-width="2" d="m17 16 4-4m0 0-4-4m4 4H7m6 4v1a3 3 0 0 1-3 3H6a3 3 0 0 1-3-3V7a3 3 0 0 1 3-3h4a3 3 0 0 1 3 3v1"/></symbol><symbol xmlns="http://www.w3.org/2000/svg" id="new-chat-icon" fill="currentColor" viewBox="0 0 24 24"><path d="M15.673 3.913a3.121 3.121 0 1 1 4.414 4.414l-5.937 5.937a5 5 0 0 1-2.829 1.415l-2.18.31a1 1 0 0 1-1.131-1.13l.311-2.18A5 5 0 0 1 9.736 9.85l5.937-5.937Zm3 1.414a1.121 1.121 0 0 0-1.586 0l-5.937 5.937a3 3 0 0 0-.849 1.697l-.123.86.86-.122a3 3 0 0 0 1.698-.849l5.937-5.937a1.121 1.121 0 0 0 0-1.586ZM11 4a1 1 0 0 1-1 1c-.998 0-1.702.008-2.253.06-.54.052-.862.141-1.109.267a3 3 0 0 0-1.311 1.311c-.134.263-.226.611-.276 1.216C5.001 8.471 5 9.264 5 10.4v3.2c0 1.137 0 1.929.051 2.546.05.605.142.953.276 1.216a3 3 0 0 0 1.311 1.311c.263.134.611.226 1.216.276.617.05 1.41.051 2.546.051h3.2c1.137 0 1.929 0 2.546-.051.605-.05.953-.142 1.216-.276a3 3 0 0 0 1.311-1.311c.126-.247.215-.569.266-1.108.053-.552.06-1.256.06-2.255a1 1 0 1 1 2 .002c0 .978-.006 1.78-.069 2.442-.064.673-.192 1.27-.475 1.827a5 5 0 0 1-2.185 2.185c-.592.302-1.232.428-1.961.487C15.6 21 14.727 21 13.643 21h-3.286c-1.084 0-1.958 0-2.666-.058-.728-.06-1.369-.185-1.96-.487a5 5 0 0 1-2.186-2.185c-.302-.592-.428-1.233-.487-1.961C3 15.6 3 14.727 3 13.643v-3.286c0-1.084 0-1.958.058-2.666.06-.729.185-1.369.487-1.961A5 5 0 0 1 5.73 3.545c.556-.284 1.154-.411 1.827-.475C8.22 3.007 9.021 3 10 3a1 1 0 0 1 1 1Z"/></symbol><symbol xmlns="http://www.w3.org/2000/svg" id="send-request-icon" fill="none" viewBox="0 0 32 32"><path fill="currentColor" fill-rule="evenodd" d="M15.192 8.906a1.143 1.143 0 0 1 1.616 0l5.143 5.143a1.143 1.143 0 0 1-1.616 1.616l-3.192-3.192v9.813a1.143 1.143 0 0 1-2.286 0v-9.813l-3.192 3.192a1.143 1.143 0 1 1-1.616-1.616l5.143-5.143Z" clip-rule="evenodd"/></symbol></svg>